<?xml version="1.0" encoding="UTF-8" standalone="no"?>
<svg
   id="Layer_1"
   version="1.1"
   viewBox="0 0 24 24"
   sodipodi:docname="llama.svg"
   width="24"
   height="24"
   inkscape:version="1.4.2 (ebf0e940d0, 2025-05-08)"
   xmlns:inkscape="http://www.inkscape.org/namespaces/inkscape"
   xmlns:sodipodi="http://sodipodi.sourceforge.net/DTD/sodipodi-0.dtd"
   xmlns:xlink="http://www.w3.org/1999/xlink"
   xmlns="http://www.w3.org/2000/svg"
   xmlns:svg="http://www.w3.org/2000/svg">
  <sodipodi:namedview
     id="namedview3"
     pagecolor="#ffffff"
     bordercolor="#000000"
     borderopacity="0.25"
     inkscape:showpageshadow="2"
     inkscape:pageopacity="0.0"
     inkscape:pagecheckerboard="true"
     inkscape:deskcolor="#d1d1d1"
     showguides="true"
     inkscape:zoom="50.202696"
     inkscape:cx="11.284255"
     inkscape:cy="16.622613"
     inkscape:window-width="2560"
     inkscape:window-height="1368"
     inkscape:window-x="0"
     inkscape:window-y="0"
     inkscape:window-maximized="1"
     inkscape:current-layer="g2">
    <sodipodi:guide
       position="126.20192,-26.99519"
       orientation="0,-1"
       id="guide3"
       inkscape:locked="false" />
    <sodipodi:guide
       position="183.89423,302.93269"
       orientation="1,0"
       id="guide4"
       inkscape:locked="false" />
    <inkscape:grid
       id="grid1"
       units="px"
       originx="0"
       originy="0"
       spacingx="0.5"
       spacingy="0.5"
       empcolor="#0099e5"
       empopacity="0.30196078"
       color="#0099e5"
       opacity="0.14902"
       empspacing="2"
       enabled="true"
       visible="true"
       dotted="true" />
  </sodipodi:namedview>
  <defs
     id="defs1" />
  <rect
     style="fill:#ffffff;stroke:none"
     id="rect2"
     width="24"
     height="24"
     x="0"
     y="0" />
  <g
     id="g2">
    <rect
       style="fill:#ffffff"
       id="rect1"
       width="16"
       height="16"
       x="4"
       y="4" />
    <path
       id="path2"
       style="fill:#000000"
       d="M 7.5,9.5 C 7.36,7.92 7.78,4.98 9.65,4.36 9.92,4.26 10.87,4.04 10.85,4.5 10.82,4.96 10.16,5.76 10,6.2 9.72,6.95 9.72,7.38 10,8.08 9.37,8.29 8.25,8.72 7.5,9.5 Z M 13.89,4.89 C 14.03,5.09 13.32,6 13.17,6.31 12.81,6.95 13.43,7.46 13.7,8.07 12.62,7.81 11.62,7.84 10.93,7.97 11.11,6.56 11.99,4.37 13.89,4.89 Z"
       sodipodi:nodetypes="ccscccccccc" />
    <path
       style="fill:none;stroke:#000000;stroke-width:2"
       id="path4"
       sodipodi:nodetypes="cc"
       d="M 15.5,11 C 5.5,6 3,23 15,18" />
    <path
       style="fill:#000000"
       d="m 11,14 h 1 v -1 h 1 v 1 h 1 v 1 h -1 v 1 h -1 v -1 h -1 z"
       id="path1" />
    <use
       x="0"
       y="0"
       xlink:href="#path1"
       id="use2"
       transform="translate(4)" />
  </g>
</svg>
