<?xml version="1.0" encoding="UTF-8" standalone="no"?>
<svg
   id="Layer_1"
   version="1.1"
   viewBox="0 0 220 220"
   sodipodi:docname="llama.svg"
   width="220"
   height="220"
   inkscape:version="1.4.2 (ebf0e940, 2025-05-08)"
   xmlns:inkscape="http://www.inkscape.org/namespaces/inkscape"
   xmlns:sodipodi="http://sodipodi.sourceforge.net/DTD/sodipodi-0.dtd"
   xmlns="http://www.w3.org/2000/svg"
   xmlns:svg="http://www.w3.org/2000/svg">
  <sodipodi:namedview
     id="namedview3"
     pagecolor="#ffffff"
     bordercolor="#000000"
     borderopacity="0.25"
     inkscape:showpageshadow="2"
     inkscape:pageopacity="0.0"
     inkscape:pagecheckerboard="true"
     inkscape:deskcolor="#d1d1d1"
     showguides="true"
     inkscape:zoom="0.55466667"
     inkscape:cx="-193.81009"
     inkscape:cy="250.60096"
     inkscape:window-width="1152"
     inkscape:window-height="987"
     inkscape:window-x="559"
     inkscape:window-y="25"
     inkscape:window-maximized="0"
     inkscape:current-layer="Layer_1">
    <sodipodi:guide
       position="126.20192,-26.99519"
       orientation="0,-1"
       id="guide3"
       inkscape:locked="false" />
    <sodipodi:guide
       position="183.89423,302.93269"
       orientation="1,0"
       id="guide4"
       inkscape:locked="false" />
  </sodipodi:namedview>
  <!-- Generator: Adobe Illustrator 29.3.1, SVG Export Plug-In . SVG Version: 2.1.0 Build 151)  -->
  <defs
     id="defs1">
    <style
       id="style1">
      .st0 {
        fill: #ff0000;
      }

      .st2 {
        fill: #fffff;
      }
    </style>
  </defs>
  <rect
     style="display:inline;fill:#ffffff;fill-opacity:1"
     id="rect1"
     width="220"
     height="220"
     x="2.5845139e-08"
     y="5.1690279e-08"
     inkscape:label="rect1" />
  <g
     id="g3"
     transform="translate(-129.8077,-102.76442)"
     style="fill:#000000;fill-opacity:1">
    <path
       class="st0"
       d="m 287.09808,192.54519 -13.5,24 c -17.8,-13.7 -44.2,-15.7 -62,-1 -28.7,23.7 -26.7,78.5 18,78.8 12.5,0 23.1,-5.9 34.5,-9.8 l 6,23.9 c -10.1,4.7 -20.4,9.5 -31.5,11 -101.2,13.8 -95.4,-132.3 -3.9,-139.9 19.2,-1.6 36.1,3.4 52.5,13 z"
       id="path1"
       style="fill:#000000;fill-opacity:1" />
    <path
       class="st0"
       d="m 217.19808,169.54519 c -15.4,4.6 -29.7,13.1 -40.5,25 -2,-24.2 3.4,-73.1 30.3,-82.7 4,-1.4 17.7,-4.9 17.3,2.2 -0.4,7.1 -9.9,19.3 -12.2,25.9 -4,11.6 -0.3,19.6 5.2,29.7 z"
       id="path2"
       style="fill:#000000;fill-opacity:1" />
    <polygon
       class="st0"
       points="1099.4,290.8 1099.4,276.8 1114.9,276.8 1116.4,275.3 1116.4,258.8 1131.4,258.8 1131.4,276.8 1147.4,276.8 1147.4,290.8 1131.4,290.8 1131.4,307.8 1116.4,307.8 1116.4,290.8 "
       id="polygon2"
       transform="translate(-876.20192,-34.254808)"
       style="fill:#000000;fill-opacity:1" />
    <polygon
       class="st0"
       points="1171.4,290.8 1155.4,290.8 1155.4,276.8 1171.4,276.8 1171.4,258.8 1186.4,258.8 1186.4,275.3 1187.9,276.8 1203.4,276.8 1203.4,290.8 1186.4,290.8 1186.4,307.8 1171.4,307.8 "
       id="polygon3"
       transform="translate(-876.20192,-34.254808)"
       style="fill:#000000;fill-opacity:1" />
    <path
       class="st0"
       d="m 266.09808,122.64519 c 2,3 -9.3,15.9 -11.1,19.2 -5.2,9.8 -1.7,15.4 2.2,24.7 -11.3,-1.7 -21.8,-0.3 -33,1 2.5,-21.5 14.6,-52.8 41.9,-44.9 z"
       id="path3"
       style="fill:#000000;fill-opacity:1" />
  </g>
</svg>
